<?xml version="1.0" encoding="UTF-8" standalone="no" ?>
<!DOCTYPE svg PUBLIC "-//W3C//DTD SVG 1.1//EN" "http://www.w3.org/Graphics/SVG/1.1/DTD/svg11.dtd">
<svg xmlns="http://www.w3.org/2000/svg" xmlns:xlink="http://www.w3.org/1999/xlink" version="1.1" width="640" height="640" viewBox="0 0 640 640" xml:space="preserve">
<desc>Created with Fabric.js 4.6.0</desc>
<defs>
</defs>
<g transform="matrix(0 0.92 -0.92 0 320 320)" id="EJOBLgAmcrGoGlCzR-Z6s"  >
<path style="stroke: rgb(49,49,49); stroke-width: 0; stroke-dasharray: none; stroke-linecap: butt; stroke-dashoffset: 0; stroke-linejoin: miter; stroke-miterlimit: 4; fill: rgb(188,198,255); fill-rule: nonzero; opacity: 1;" vector-effect="non-scaling-stroke"  transform=" translate(-301.49, -261.1)" d="M 452.23782 0 L 602.98369 261.0996 L 452.23782000000006 522.1992 L 150.74587000000008 522.1992 L 8.526512829121202e-14 261.0996 L 150.74587000000008 0 z" stroke-linecap="round" />
</g>
<g transform="matrix(0.99 0.14 -0.14 0.99 179.76 394.5)" id="ph7MyxO4kaUsip6f_bHWA"  >
<path style="stroke: rgb(23,23,23); stroke-width: 12; stroke-dasharray: none; stroke-linecap: butt; stroke-dashoffset: 0; stroke-linejoin: miter; stroke-miterlimit: 4; fill: rgb(0,150,255); fill-rule: nonzero; opacity: 1;" vector-effect="non-scaling-stroke"  transform=" translate(0, 0)" d="M -128 166.2094 C -128 -378.42805 128 -89.79060000000001 128 -89.79060000000001" stroke-linecap="round" />
</g>
<g transform="matrix(-0.99 -0.12 0.12 -0.99 456.76 250.36)" id="_VB9vu17EqOZBY1FDYanI"  >
<path style="stroke: rgb(23,23,23); stroke-width: 12; stroke-dasharray: none; stroke-linecap: butt; stroke-dashoffset: 0; stroke-linejoin: miter; stroke-miterlimit: 4; fill: rgb(191,0,255); fill-rule: nonzero; opacity: 1;" vector-effect="non-scaling-stroke"  transform=" translate(0, 0)" d="M -127.75 166.08993 C -127.75 -378.54751999999996 127.75 -89.41006999999999 127.75 -89.41006999999999" stroke-linecap="round" />
</g>
<g transform="matrix(1.08 0.15 -0.15 1.08 178.62 392.31)" id="GFEEcNKInO8A7sqoflmYS"  >
<path style="stroke: rgb(23,23,23); stroke-width: 4; stroke-dasharray: none; stroke-linecap: butt; stroke-dashoffset: 0; stroke-linejoin: miter; stroke-miterlimit: 4; fill: none; fill-rule: nonzero; opacity: 1;" vector-effect="non-scaling-stroke"  transform=" translate(0, 0)" d="M -128 166.2094 C -128 -378.42805 128 -89.79060000000001 128 -89.79060000000001" stroke-linecap="round" />
</g>
<g transform="matrix(-0.88 -0.11 0.11 -0.88 452.71 250.03)" id="A7XjdU9dv6eR_hL-pFqFj"  >
<path style="stroke: rgb(23,23,23); stroke-width: 4; stroke-dasharray: none; stroke-linecap: butt; stroke-dashoffset: 0; stroke-linejoin: miter; stroke-miterlimit: 4; fill: none; fill-rule: nonzero; opacity: 1;" vector-effect="non-scaling-stroke"  transform=" translate(0, 0)" d="M -127.75 166.08993 C -127.75 -378.54751999999996 127.75 -89.41006999999999 127.75 -89.41006999999999" stroke-linecap="round" />
</g>
<g transform="matrix(1 0 0 1 319.5 196.5)" id="KTe1q1Tt6rh709SVh5F1h"  >
<path style="stroke: rgb(0,0,0); stroke-width: 2; stroke-dasharray: none; stroke-linecap: butt; stroke-dashoffset: 0; stroke-linejoin: miter; stroke-miterlimit: 4; fill: rgb(255,255,255); fill-opacity: 0; fill-rule: nonzero; opacity: 1;" vector-effect="non-scaling-stroke"  transform=" translate(0, 0)" d="M -272 0 L 272 0" stroke-linecap="round" />
</g>
<g transform="matrix(1 0 0 1 319.5 260.5)" id="tKHmt5bCqPIYRJbd7htFt"  >
<path style="stroke: rgb(0,0,0); stroke-width: 2; stroke-dasharray: none; stroke-linecap: butt; stroke-dashoffset: 0; stroke-linejoin: miter; stroke-miterlimit: 4; fill: rgb(255,255,255); fill-opacity: 0; fill-rule: nonzero; opacity: 1;" vector-effect="non-scaling-stroke"  transform=" translate(0, 0)" d="M -272 0 L 272 0" stroke-linecap="round" />
</g>
<g transform="matrix(1 0 0 1 319.5 323.29)" id="cTk3qGY-m2NGNFdI3jOGS"  >
<path style="stroke: rgb(0,0,0); stroke-width: 2; stroke-dasharray: none; stroke-linecap: butt; stroke-dashoffset: 0; stroke-linejoin: miter; stroke-miterlimit: 4; fill: rgb(255,255,255); fill-opacity: 0; fill-rule: nonzero; opacity: 1;" vector-effect="non-scaling-stroke"  transform=" translate(0, 0)" d="M 272 1.21116 L -272 -1.21115" stroke-linecap="round" />
</g>
<g transform="matrix(1 0 0 1 319.5 388.5)" id="fWJhPY3_6wUsFFSAHq1kc"  >
<path style="stroke: rgb(0,0,0); stroke-width: 2; stroke-dasharray: none; stroke-linecap: butt; stroke-dashoffset: 0; stroke-linejoin: miter; stroke-miterlimit: 4; fill: rgb(255,255,255); fill-opacity: 0; fill-rule: nonzero; opacity: 1;" vector-effect="non-scaling-stroke"  transform=" translate(0, 0)" d="M -272 0 L 272 0" stroke-linecap="round" />
</g>
<g transform="matrix(1 0 0 1 319.5 452.5)" id="PmKQe9xZG7-6XBAhDvypK"  >
<path style="stroke: rgb(0,0,0); stroke-width: 2; stroke-dasharray: none; stroke-linecap: butt; stroke-dashoffset: 0; stroke-linejoin: miter; stroke-miterlimit: 4; fill: rgb(255,255,255); fill-opacity: 0; fill-rule: nonzero; opacity: 1;" vector-effect="non-scaling-stroke"  transform=" translate(0, 0)" d="M 272 0 L -272 0" stroke-linecap="round" />
</g>
</svg>